<svg xmlns="http://www.w3.org/2000/svg" version="1.1" xmlns:xlink="http://www.w3.org/1999/xlink" xmlns:svgjs="http://svgjs.com/svgjs" width="512" height="512" x="0" y="0" viewBox="0 0 510 510" style="enable-background:new 0 0 512 512" xml:space="preserve" class=""><g><script></script><linearGradient xmlns="http://www.w3.org/2000/svg" id="lg1"><stop offset="0" stop-color="#8a7889"></stop><stop offset="1" stop-color="#6e566e"></stop></linearGradient><linearGradient xmlns="http://www.w3.org/2000/svg" id="SVGID_1_" gradientUnits="userSpaceOnUse" x1="254.998" x2="254.998" xmlns:xlink="http://www.w3.org/1999/xlink" xlink:href="#lg1" y1="83.322" y2="334.559"></linearGradient><linearGradient xmlns="http://www.w3.org/2000/svg" id="SVGID_2_" gradientUnits="userSpaceOnUse" x1="241.592" x2="133.887" y1="344.223" y2="284.675"><stop offset="0" stop-color="#6e566e" stop-opacity="0"></stop><stop offset=".3782" stop-color="#6a516a" stop-opacity=".378"></stop><stop offset=".8244" stop-color="#5f435d" stop-opacity=".824"></stop><stop offset="1" stop-color="#593b56"></stop></linearGradient><linearGradient xmlns="http://www.w3.org/2000/svg" id="SVGID_3_" gradientUnits="userSpaceOnUse" x1="390.628" x2="352.828" y1="275.419" y2="285.776"><stop offset="0" stop-color="#6e566e" stop-opacity="0"></stop><stop offset="1" stop-color="#593b56"></stop></linearGradient><linearGradient xmlns="http://www.w3.org/2000/svg" id="SVGID_4_" gradientUnits="userSpaceOnUse" x1="206.41" x2="285.808" y1="358.529" y2="531.824"><stop offset="0" stop-color="#ffdecf"></stop><stop offset="1" stop-color="#faa68e"></stop></linearGradient><linearGradient xmlns="http://www.w3.org/2000/svg" id="lg2"><stop offset="0" stop-color="#faa68e" stop-opacity="0"></stop><stop offset="1" stop-color="#faa68e"></stop></linearGradient><linearGradient xmlns="http://www.w3.org/2000/svg" id="SVGID_5_" gradientUnits="userSpaceOnUse" x1="445.399" x2="384.897" xmlns:xlink="http://www.w3.org/1999/xlink" xlink:href="#lg2" y1="510.601" y2="450.099"></linearGradient><linearGradient xmlns="http://www.w3.org/2000/svg" id="lg3"><stop offset="0" stop-color="#ffdecf"></stop><stop offset=".3753" stop-color="#ffdccd"></stop><stop offset=".5809" stop-color="#fed5c5"></stop><stop offset=".7453" stop-color="#fdc9b7"></stop><stop offset=".8871" stop-color="#fcb9a4"></stop><stop offset="1" stop-color="#faa68e"></stop></linearGradient><radialGradient xmlns="http://www.w3.org/2000/svg" id="SVGID_6_" cx="151.017" cy="191.442" gradientUnits="userSpaceOnUse" r="42.657" xmlns:xlink="http://www.w3.org/1999/xlink" xlink:href="#lg3"></radialGradient><radialGradient xmlns="http://www.w3.org/2000/svg" id="SVGID_7_" cx="358.605" cy="191.442" gradientUnits="userSpaceOnUse" r="42.657" xmlns:xlink="http://www.w3.org/1999/xlink" xlink:href="#lg3"></radialGradient><linearGradient xmlns="http://www.w3.org/2000/svg" id="SVGID_8_" gradientUnits="userSpaceOnUse" x1="254.998" x2="254.998" xmlns:xlink="http://www.w3.org/1999/xlink" xlink:href="#lg2" y1="424.091" y2="480.396"></linearGradient><linearGradient xmlns="http://www.w3.org/2000/svg" id="SVGID_9_" gradientUnits="userSpaceOnUse" x1="336.736" x2="295.061" y1="460.708" y2="528.838"><stop offset="0" stop-color="#ffdecf" stop-opacity="0"></stop><stop offset="1" stop-color="#fff"></stop></linearGradient><linearGradient xmlns="http://www.w3.org/2000/svg" id="SVGID_10_" gradientUnits="userSpaceOnUse" x1="198.863" x2="261.492" xmlns:xlink="http://www.w3.org/1999/xlink" xlink:href="#lg2" y1="466.404" y2="469.027"></linearGradient><linearGradient xmlns="http://www.w3.org/2000/svg" id="lg4"><stop offset="0" stop-color="#9b62cd"></stop><stop offset=".3003" stop-color="#985dcb"></stop><stop offset=".6716" stop-color="#8f4ec7"></stop><stop offset="1" stop-color="#833ac1"></stop></linearGradient><linearGradient xmlns="http://www.w3.org/2000/svg" id="SVGID_11_" gradientUnits="userSpaceOnUse" x1="288.916" x2="347.916" xmlns:xlink="http://www.w3.org/1999/xlink" xlink:href="#lg4" y1="462.892" y2="509.392"></linearGradient><linearGradient xmlns="http://www.w3.org/2000/svg" id="SVGID_12_" gradientUnits="userSpaceOnUse" x1="159.941" x2="222.645" xmlns:xlink="http://www.w3.org/1999/xlink" xlink:href="#lg4" y1="463.401" y2="516.65"></linearGradient><radialGradient xmlns="http://www.w3.org/2000/svg" id="SVGID_13_" cx="219.319" cy="145.412" gradientUnits="userSpaceOnUse" r="181.807" xmlns:xlink="http://www.w3.org/1999/xlink" xlink:href="#lg3"></radialGradient><linearGradient xmlns="http://www.w3.org/2000/svg" id="SVGID_14_" gradientUnits="userSpaceOnUse" x1="276.28" x2="242.247" xmlns:xlink="http://www.w3.org/1999/xlink" xlink:href="#lg2" y1="203.145" y2="97.106"></linearGradient><linearGradient xmlns="http://www.w3.org/2000/svg" id="SVGID_15_" gradientUnits="userSpaceOnUse" x1="200.752" x2="175.733" xmlns:xlink="http://www.w3.org/1999/xlink" xlink:href="#lg1" y1="192.473" y2="199.327"></linearGradient><linearGradient xmlns="http://www.w3.org/2000/svg" id="SVGID_16_" gradientTransform="matrix(-1 0 0 1 1706.324 0)" gradientUnits="userSpaceOnUse" x1="1397.076" x2="1372.057" xmlns:xlink="http://www.w3.org/1999/xlink" xlink:href="#lg1" y1="192.473" y2="199.327"></linearGradient><linearGradient xmlns="http://www.w3.org/2000/svg" id="SVGID_17_" gradientUnits="userSpaceOnUse" x1="195.962" x2="219.827" xmlns:xlink="http://www.w3.org/1999/xlink" xlink:href="#lg1" y1="180.71" y2="204.575"></linearGradient><linearGradient xmlns="http://www.w3.org/2000/svg" id="lg5"><stop offset="0" stop-color="#bdc2d1" stop-opacity="0"></stop><stop offset=".3183" stop-color="#c1c6d4" stop-opacity=".318"></stop><stop offset=".6082" stop-color="#ccd0dd" stop-opacity=".608"></stop><stop offset=".8861" stop-color="#dee2ec" stop-opacity=".886"></stop><stop offset="1" stop-color="#e8ecf4"></stop></linearGradient><linearGradient xmlns="http://www.w3.org/2000/svg" id="SVGID_18_" gradientUnits="userSpaceOnUse" x1="200.732" x2="187.366" xmlns:xlink="http://www.w3.org/1999/xlink" xlink:href="#lg5" y1="184.542" y2="165.274"></linearGradient><linearGradient xmlns="http://www.w3.org/2000/svg" id="lg6"><stop offset="0" stop-color="#6e566e" stop-opacity="0"></stop><stop offset=".0471" stop-color="#6e566e" stop-opacity=".047"></stop><stop offset="1" stop-color="#6e566e"></stop></linearGradient><linearGradient xmlns="http://www.w3.org/2000/svg" id="SVGID_19_" gradientUnits="userSpaceOnUse" x1="203.496" x2="228.824" xmlns:xlink="http://www.w3.org/1999/xlink" xlink:href="#lg6" y1="194.666" y2="147.56"></linearGradient><linearGradient xmlns="http://www.w3.org/2000/svg" id="SVGID_20_" gradientUnits="userSpaceOnUse" x1="300.245" x2="324.11" xmlns:xlink="http://www.w3.org/1999/xlink" xlink:href="#lg1" y1="180.71" y2="204.575"></linearGradient><linearGradient xmlns="http://www.w3.org/2000/svg" id="SVGID_21_" gradientUnits="userSpaceOnUse" x1="305.015" x2="291.649" xmlns:xlink="http://www.w3.org/1999/xlink" xlink:href="#lg5" y1="184.542" y2="165.274"></linearGradient><linearGradient xmlns="http://www.w3.org/2000/svg" id="SVGID_22_" gradientUnits="userSpaceOnUse" x1="307.78" x2="333.108" xmlns:xlink="http://www.w3.org/1999/xlink" xlink:href="#lg6" y1="194.667" y2="147.56"></linearGradient><linearGradient xmlns="http://www.w3.org/2000/svg" id="SVGID_23_" gradientUnits="userSpaceOnUse" x1="254.998" x2="254.998" xmlns:xlink="http://www.w3.org/1999/xlink" xlink:href="#lg2" y1="205.678" y2="282.394"></linearGradient><linearGradient xmlns="http://www.w3.org/2000/svg" id="SVGID_24_" gradientTransform="matrix(-1 0 0 1 1573.996 0)" gradientUnits="userSpaceOnUse" x1="1318.996" x2="1318.996" xmlns:xlink="http://www.w3.org/1999/xlink" xlink:href="#lg1" y1="83.322" y2="334.559"></linearGradient><linearGradient xmlns="http://www.w3.org/2000/svg" id="lg7"><stop offset="0" stop-color="#ffd945"></stop><stop offset=".3043" stop-color="#ffcd3e"></stop><stop offset=".8558" stop-color="#ffad2b"></stop><stop offset="1" stop-color="#ffa325"></stop></linearGradient><linearGradient xmlns="http://www.w3.org/2000/svg" id="SVGID_25_" gradientUnits="userSpaceOnUse" x1="138.276" x2="148.153" xmlns:xlink="http://www.w3.org/1999/xlink" xlink:href="#lg7" y1="234.479" y2="244.356"></linearGradient><linearGradient xmlns="http://www.w3.org/2000/svg" id="SVGID_26_" gradientUnits="userSpaceOnUse" x1="138.276" x2="148.153" xmlns:xlink="http://www.w3.org/1999/xlink" xlink:href="#lg7" y1="251.697" y2="261.573"></linearGradient><linearGradient xmlns="http://www.w3.org/2000/svg" id="SVGID_27_" gradientUnits="userSpaceOnUse" x1="136.905" x2="151.611" xmlns:xlink="http://www.w3.org/1999/xlink" xlink:href="#lg7" y1="277.51" y2="292.216"></linearGradient><linearGradient xmlns="http://www.w3.org/2000/svg" id="SVGID_28_" gradientUnits="userSpaceOnUse" x1="366.114" x2="375.991" xmlns:xlink="http://www.w3.org/1999/xlink" xlink:href="#lg7" y1="234.479" y2="244.356"></linearGradient><linearGradient xmlns="http://www.w3.org/2000/svg" id="SVGID_29_" gradientUnits="userSpaceOnUse" x1="366.114" x2="375.991" xmlns:xlink="http://www.w3.org/1999/xlink" xlink:href="#lg7" y1="251.697" y2="261.573"></linearGradient><linearGradient xmlns="http://www.w3.org/2000/svg" id="SVGID_30_" gradientUnits="userSpaceOnUse" x1="364.743" x2="379.448" xmlns:xlink="http://www.w3.org/1999/xlink" xlink:href="#lg7" y1="277.51" y2="292.216"></linearGradient><linearGradient xmlns="http://www.w3.org/2000/svg" id="SVGID_31_" gradientUnits="userSpaceOnUse" x1="412.953" x2="330.379" y1="524.047" y2="441.473"><stop offset="0" stop-color="#662d90" stop-opacity="0"></stop><stop offset=".3052" stop-color="#632d8c" stop-opacity=".305"></stop><stop offset=".5953" stop-color="#5b2d81" stop-opacity=".595"></stop><stop offset=".8785" stop-color="#4d2d6e" stop-opacity=".879"></stop><stop offset="1" stop-color="#452d63"></stop></linearGradient><linearGradient xmlns="http://www.w3.org/2000/svg" id="SVGID_32_" gradientUnits="userSpaceOnUse" x1="375.537" x2="375.537" xmlns:xlink="http://www.w3.org/1999/xlink" xlink:href="#lg7" y1="332.48" y2="437.436"></linearGradient><linearGradient xmlns="http://www.w3.org/2000/svg" id="lg8"><stop offset="0" stop-color="#fbb27e" stop-opacity="0"></stop><stop offset="1" stop-color="#ff7044"></stop></linearGradient><linearGradient xmlns="http://www.w3.org/2000/svg" id="SVGID_33_" gradientUnits="userSpaceOnUse" x1="368.348" x2="394.565" xmlns:xlink="http://www.w3.org/1999/xlink" xlink:href="#lg8" y1="396.99" y2="330.852"></linearGradient><linearGradient xmlns="http://www.w3.org/2000/svg" id="SVGID_34_" gradientUnits="userSpaceOnUse" x1="427.999" x2="331.473" xmlns:xlink="http://www.w3.org/1999/xlink" xlink:href="#lg8" y1="397.875" y2="379.106"></linearGradient><linearGradient xmlns="http://www.w3.org/2000/svg" id="SVGID_35_" gradientUnits="userSpaceOnUse" x1="388.279" x2="382.917" xmlns:xlink="http://www.w3.org/1999/xlink" xlink:href="#lg8" y1="438.373" y2="344.082"></linearGradient><linearGradient xmlns="http://www.w3.org/2000/svg" id="SVGID_36_" gradientUnits="userSpaceOnUse" x1="357.513" x2="399.966" xmlns:xlink="http://www.w3.org/1999/xlink" xlink:href="#lg8" y1="423.726" y2="367.866"></linearGradient><linearGradient xmlns="http://www.w3.org/2000/svg" id="SVGID_37_" gradientUnits="userSpaceOnUse" x1="391.898" x2="333.805" xmlns:xlink="http://www.w3.org/1999/xlink" xlink:href="#lg8" y1="414.98" y2="388.614"></linearGradient><linearGradient xmlns="http://www.w3.org/2000/svg" id="SVGID_38_" gradientTransform="matrix(-1 -.003 -.003 1 1574.764 4.242)" gradientUnits="userSpaceOnUse" x1="1449.852" x2="1540.173" xmlns:xlink="http://www.w3.org/1999/xlink" xlink:href="#lg7" y1="71.306" y2="71.306"></linearGradient><linearGradient xmlns="http://www.w3.org/2000/svg" id="SVGID_39_" gradientTransform="matrix(-1 -.003 -.003 1 1574.764 4.242)" gradientUnits="userSpaceOnUse" x1="1441.495" x2="1505.366" xmlns:xlink="http://www.w3.org/1999/xlink" xlink:href="#lg7" y1="179.722" y2="179.722"></linearGradient><linearGradient xmlns="http://www.w3.org/2000/svg" id="SVGID_40_" gradientTransform="matrix(-1 -.003 -.003 1 1574.764 4.242)" gradientUnits="userSpaceOnUse" x1="1137.369" x2="1201.24" xmlns:xlink="http://www.w3.org/1999/xlink" xlink:href="#lg7" y1="141.631" y2="141.631"></linearGradient><linearGradient xmlns="http://www.w3.org/2000/svg" id="SVGID_41_" gradientTransform="matrix(-1 -.003 -.003 1 1574.764 4.242)" gradientUnits="userSpaceOnUse" x1="1459.888" x2="1523.76" xmlns:xlink="http://www.w3.org/1999/xlink" xlink:href="#lg7" y1="349.489" y2="349.489"></linearGradient><linearGradient xmlns="http://www.w3.org/2000/svg" id="SVGID_42_" gradientTransform="matrix(-1 -.003 -.003 1 1574.764 4.242)" gradientUnits="userSpaceOnUse" x1="1098.93" x2="1162.802" xmlns:xlink="http://www.w3.org/1999/xlink" xlink:href="#lg7" y1="65.097" y2="65.097"></linearGradient><g xmlns="http://www.w3.org/2000/svg"><path d="m396.064 399.415c.211-3.873.319-222.028.319-225.967 0-95.793-63.3-173.448-141.385-173.448s-141.385 77.655-141.385 173.447c0 3.939.107 222.094.319 225.967 1.072 19.664 281.06 19.664 282.132.001z" fill="url(#SVGID_1_)" data-original="url(#SVGID_1_)" style=""></path><path d="m148.428 232.137c-1.624-2.313-4.306-3.829-7.346-3.829-4.957 0-8.975 4.018-8.975 8.975 0 3.044 1.518 5.729 3.836 7.351.435.617.944 1.177 1.517 1.666-3.15 1.393-5.352 4.535-5.352 8.2 0 3.041 1.517 5.719 3.831 7.339.601.855 2.865 3.061 3.253 3.442-1.36 3.038-2.294 9.229-2.294 16.404 0 10.176 1.874 18.425 4.186 18.425.067 0 .131-.03.197-.044l111.995 112.237c2.312 0 4.186-8.249 4.186-18.425 0-9.33-1.577-17.021-3.621-18.238 4.692-.293 8.41-4.181 8.41-8.947 0-3.044-1.518-5.73-3.836-7.351-.435-.617-.944-1.177-1.517-1.666 3.15-1.393 5.352-4.534 5.352-8.2 0-3.041-1.516-5.723-3.829-7.347z" fill="url(#SVGID_2_)" data-original="url(#SVGID_2_)" style=""></path><path d="m396.333 252.205-20.068-20.068c-1.624-2.313-4.306-3.829-7.346-3.829-4.957 0-8.975 4.018-8.975 8.975 0 3.044 1.518 5.729 3.836 7.351.435.617.944 1.177 1.517 1.666-3.15 1.393-5.352 4.535-5.352 8.2 0 3.041 1.517 5.719 3.831 7.339.601.855 2.865 3.061 3.253 3.442-1.36 3.038-2.294 9.229-2.294 16.404 0 10.176 1.874 18.425 4.186 18.425.067 0 .131-.03.197-.044l27.142 27.2c.028-23.922.053-50.665.073-75.061z" fill="url(#SVGID_3_)" data-original="url(#SVGID_3_)" style=""></path><path d="m346.988 368.755h-13.885c-22.978-.093-41.784-17.904-43.451-40.477-.039-.493-.065-.985-.078-1.478-.026-.596-.039-1.193-.039-1.789v-19.611h-34.535-34.535v19.612c0 .596-.013 1.192-.039 1.789-.013.493-.039.985-.078 1.478-1.668 22.573-20.474 40.384-43.451 40.477h-13.885c-39.555 0-71.621 32.066-71.621 71.621v62.529c0 3.917 3.176 7.093 7.093 7.093h156.516 156.515c3.918 0 7.093-3.176 7.093-7.093v-62.529c.001-39.557-32.065-71.622-71.62-71.622z" fill="url(#SVGID_4_)" data-original="url(#SVGID_4_)" style=""></path><path d="m418.609 502.904v-62.529c0-39.555-32.066-71.621-71.621-71.621h-13.885c-10.136-.041-19.458-3.533-26.857-9.358-11.834 6.422-15.2 23.3-4.571 33.661l15.9 15.894c3.391 4.587 4.82 10.397 3.839 16.115l-3.226 18.811c-1.443 8.414 2.133 15.844 7.965 20.312l45.808 45.808h39.556c3.916 0 7.092-3.176 7.092-7.093z" fill="url(#SVGID_5_)" data-original="url(#SVGID_5_)" style=""></path><g><circle cx="151.204" cy="209.926" fill="url(#SVGID_6_)" r="27.633" data-original="url(#SVGID_6_)" style=""></circle><circle cx="358.792" cy="209.926" fill="url(#SVGID_7_)" r="27.633" data-original="url(#SVGID_7_)" style=""></circle></g><path d="m373.105 509.997h-236.214c-6.01 0-10.883-4.872-10.883-10.883v-81.501h257.98v81.501c0 6.011-4.872 10.883-10.883 10.883z" fill="url(#SVGID_8_)" data-original="url(#SVGID_8_)" style=""></path><g><path d="m383.988 493.89c0 5.53-.52 10.92-1.526 16.11h-125.946c-.997-5.19-1.518-10.58-1.518-16.11 0-41.07 28.872-74.37 64.491-74.37s64.499 33.3 64.499 74.37z" fill="url(#SVGID_9_)" data-original="url(#SVGID_9_)" style=""></path><path d="m254.998 493.89c0 5.53-.52 10.92-1.518 16.11h-125.946c-1.006-5.19-1.526-10.58-1.526-16.11 0-41.07 28.88-74.37 64.499-74.37s64.491 33.3 64.491 74.37z" fill="url(#SVGID_10_)" data-original="url(#SVGID_10_)" style=""></path></g><g><path d="m387.17 498.67c0 3.86-.33 7.65-.96 11.33h-131.42c-.63-3.68-.96-7.47-.96-11.33 0-4.27.4-8.44 1.17-12.49 5.85-30.85 32.95-54.18 65.5-54.18 36.82 0 66.67 29.85 66.67 66.67z" fill="url(#SVGID_11_)" data-original="url(#SVGID_11_)" style=""></path><path d="m256.17 498.67c0 3.86-.33 7.65-.96 11.33h-131.42c-.63-3.68-.96-7.47-.96-11.33 0-36.82 29.85-66.67 66.67-66.67 32.55 0 59.65 23.33 65.5 54.18.77 4.05 1.17 8.22 1.17 12.49z" fill="url(#SVGID_12_)" data-original="url(#SVGID_12_)" style=""></path></g><path d="m254.998 333.538c-57.324 0-103.794-46.47-103.794-103.794v-109.2c0-57.324 46.47-103.794 103.794-103.794 57.324 0 103.794 46.47 103.794 103.794v109.2c0 57.324-46.47 103.794-103.794 103.794z" fill="url(#SVGID_13_)" data-original="url(#SVGID_13_)" style=""></path><path d="m254.998 16.75c-57.324 0-103.794 46.47-103.794 103.794v48.922l152.14 152.14c32.97-17.388 55.448-51.997 55.448-91.862v-109.2c0-57.324-46.47-103.794-103.794-103.794z" fill="url(#SVGID_14_)" data-original="url(#SVGID_14_)" style=""></path><g><path d="m205.125 194.638c-8.578 0-16.268-3.794-21.487-9.795-1.664-1.913-4.838-.31-4.226 2.151.018.074.037.149.057.223 2.549 9.84 11.255 17.108 21.4 17.731 1.871.115 3.699.012 5.46-.285 6.17-1.042 5.294-10.078-.964-10.026-.08.001-.16.001-.24.001z" fill="url(#SVGID_15_)" data-original="url(#SVGID_15_)" style=""></path><path d="m304.875 194.638c8.578 0 16.268-3.794 21.487-9.795 1.664-1.913 4.838-.31 4.226 2.151-.018.074-.037.149-.057.223-2.549 9.84-11.255 17.108-21.401 17.731-1.871.115-3.698.012-5.46-.285-6.17-1.042-5.294-10.078.964-10.026.081.001.161.001.241.001z" fill="url(#SVGID_16_)" data-original="url(#SVGID_16_)" style=""></path></g><g><g><g><path d="m221.283 187.605c0 10.176-8.25 18.426-18.426 18.426-10.177 0-18.426-8.25-18.426-18.426 0-10.177 8.25-18.426 18.426-18.426 10.176-.001 18.426 8.249 18.426 18.426z" fill="url(#SVGID_17_)" data-original="url(#SVGID_17_)" style=""></path><path d="m218.235 187.605c0 8.493-6.885 15.378-15.378 15.378s-15.378-6.885-15.378-15.378 6.885-15.379 15.378-15.379 15.378 6.885 15.378 15.379z" fill="url(#SVGID_18_)" data-original="url(#SVGID_18_)" style=""></path><path d="m211.099 171.122c1.243 2.48 1.943 5.279 1.943 8.243 0 10.177-8.25 18.426-18.426 18.426-2.963 0-5.763-.701-8.243-1.943 3.025 6.038 9.27 10.183 16.483 10.183 10.177 0 18.426-8.25 18.426-18.426.001-7.214-4.145-13.458-10.183-16.483z" fill="url(#SVGID_19_)" data-original="url(#SVGID_19_)" style=""></path></g></g><g><g><path d="m325.566 187.605c0 10.176-8.25 18.426-18.426 18.426s-18.426-8.25-18.426-18.426c0-10.177 8.25-18.426 18.426-18.426 10.176-.001 18.426 8.249 18.426 18.426z" fill="url(#SVGID_20_)" data-original="url(#SVGID_20_)" style=""></path><path d="m322.518 187.605c0 8.493-6.885 15.378-15.378 15.378s-15.378-6.885-15.378-15.378 6.885-15.379 15.378-15.379 15.378 6.885 15.378 15.379z" fill="url(#SVGID_21_)" data-original="url(#SVGID_21_)" style=""></path><path d="m315.382 171.122c1.243 2.48 1.943 5.279 1.943 8.243 0 10.177-8.25 18.426-18.426 18.426-2.963 0-5.763-.701-8.243-1.943 3.025 6.038 9.27 10.183 16.483 10.183 10.177 0 18.426-8.25 18.426-18.426.001-7.214-4.145-13.458-10.183-16.483z" fill="url(#SVGID_22_)" data-original="url(#SVGID_22_)" style=""></path></g></g></g><path d="m260.894 259.267h-11.793c-9.451 0-16.813-8.197-15.803-17.594l6.166-57.315h31.066l6.166 57.315c1.012 9.396-6.351 17.594-15.802 17.594z" fill="url(#SVGID_23_)" data-original="url(#SVGID_23_)" style=""></path><path d="m255 0c65.397 0 118.411 53.014 118.411 118.411v55.361c-38.768 6.439-90.18-6.389-137.505-37.787-8.968-5.95-17.374-12.298-25.179-18.934-2.836 6.49-6.287 12.901-10.409 19.114-16.579 24.989-40.13 41.551-63.729 47.348v-65.102c0-65.397 53.014-118.411 118.411-118.411z" fill="url(#SVGID_24_)" data-original="url(#SVGID_24_)" style=""></path><g><circle cx="141.081" cy="237.284" fill="url(#SVGID_25_)" r="8.975" data-original="url(#SVGID_25_)" style=""></circle><circle cx="141.081" cy="254.501" fill="url(#SVGID_26_)" r="8.975" data-original="url(#SVGID_26_)" style=""></circle><ellipse cx="141.081" cy="281.687" fill="url(#SVGID_27_)" rx="4.186" ry="18.425" data-original="url(#SVGID_27_)" style=""></ellipse></g><g><circle cx="368.919" cy="237.284" fill="url(#SVGID_28_)" r="8.975" data-original="url(#SVGID_28_)" style=""></circle><circle cx="368.919" cy="254.501" fill="url(#SVGID_29_)" r="8.975" data-original="url(#SVGID_29_)" style=""></circle><ellipse cx="368.919" cy="281.687" fill="url(#SVGID_30_)" rx="4.186" ry="18.425" data-original="url(#SVGID_30_)" style=""></ellipse></g><path d="m387.17 498.67c0-36.82-29.85-66.67-66.67-66.67-.093 0-.185.006-.278.006l-2.036 11.871c-1.443 8.414 2.133 15.844 7.965 20.312l45.808 45.808h14.251c.63-3.679.96-7.468.96-11.327z" fill="url(#SVGID_31_)" data-original="url(#SVGID_31_)" style=""></path><g><path d="m394.468 325.638 8.447 17.115c3.075 6.231 9.02 10.55 15.896 11.549l18.887 2.744c17.317 2.516 24.231 23.797 11.701 36.011l-13.667 13.322c-4.976 4.85-7.246 11.838-6.072 18.687l3.226 18.811c2.958 17.247-15.144 30.399-30.633 22.256l-16.893-8.881c-6.15-3.233-13.498-3.233-19.649 0l-16.893 8.881c-15.488 8.143-33.591-5.009-30.633-22.256l3.226-18.811c1.175-6.849-1.096-13.837-6.072-18.687l-13.667-13.322c-12.53-12.214-5.616-33.495 11.701-36.011l18.887-2.744c6.876-.999 12.821-5.318 15.896-11.549l8.447-17.115c7.746-15.692 30.121-15.692 37.865 0z" fill="url(#SVGID_32_)" data-original="url(#SVGID_32_)" style=""></path><path d="m339.832 351.655c-2.301 1.338-4.861 2.254-7.57 2.647l-18.887 2.744c-17.317 2.516-24.231 23.797-11.701 36.011l13.667 13.322c4.976 4.85 7.246 11.838 6.072 18.687l-3.226 18.811c-2.958 17.247 15.144 30.399 30.633 22.256l16.893-8.881c6.15-3.234 13.498-3.234 19.649 0l16.893 8.881c7.342 3.86 15.267 2.929 21.262-.948z" fill="url(#SVGID_33_)" data-original="url(#SVGID_33_)" style=""></path><path d="m449.396 393.058-13.665 13.326c-3.11 3.03-5.157 6.882-5.97 11.02-.501 2.494-.545 5.085-.098 7.659l3.227 18.813c1.555 9.072-2.717 17.008-9.367 21.307-5.997 3.879-13.925 4.808-21.271.947l-16.892-8.875c-3.075-1.618-6.444-2.422-9.822-2.422v-54.626l.125.036-.054-.054-.072-.107v-86.211c7.525 0 15.06 3.924 18.93 11.771l8.446 17.106c1.859 3.781 4.782 6.855 8.33 8.911 2.297 1.341 4.862 2.252 7.57 2.646l18.885 2.744c10.01 1.448 16.543 9.17 17.848 17.786.964 6.291-.859 13.066-6.15 18.223z" fill="url(#SVGID_34_)" data-original="url(#SVGID_34_)" style=""></path><g><path d="m321.316 417.407c.492 2.492.538 5.086.097 7.66l-3.226 18.811c-2.958 17.247 15.144 30.399 30.633 22.256l16.893-8.881c6.15-3.234 13.498-3.234 19.649 0l16.893 8.881c15.488 8.143 33.591-5.009 30.633-22.256l-3.226-18.811c-1.175-6.849 1.096-13.837 6.072-18.687l13.667-13.322c5.29-5.156 7.103-11.926 6.142-18.219z" fill="url(#SVGID_35_)" data-original="url(#SVGID_35_)" style=""></path></g><path d="m429.66 425.066c-.441-2.574-.396-5.167.097-7.66l-134.226-42.569c-.96 6.294.853 13.063 6.142 18.219l13.667 13.322c4.976 4.85 7.246 11.838 6.072 18.687l-3.226 18.811c-2.958 17.247 15.144 30.399 30.633 22.256l16.893-8.881c6.15-3.234 13.498-3.234 19.649 0l16.893 8.881c15.488 8.143 33.591-5.009 30.633-22.256z" fill="url(#SVGID_36_)" data-original="url(#SVGID_36_)" style=""></path><path d="m437.699 357.046-18.887-2.744c-2.705-.393-5.262-1.307-7.56-2.641l-83.61 113.581c5.985 3.832 13.871 4.733 21.178.891l16.893-8.881c6.15-3.234 13.498-3.234 19.649 0l16.893 8.881c15.488 8.143 33.591-5.009 30.633-22.256l-3.226-18.811c-1.175-6.849 1.096-13.837 6.072-18.687l13.667-13.322c12.529-12.214 5.614-33.494-11.702-36.011z" fill="url(#SVGID_37_)" data-original="url(#SVGID_37_)" style=""></path></g><g><path d="m36.888 75.394c15.155 9.946 28.071 23.023 37.835 38.305 2.196 3.436 7.289 3.443 9.494.013 9.806-15.254 22.758-28.296 37.941-38.199 3.37-2.198 3.377-7.221.013-9.429-15.155-9.946-28.071-23.023-37.835-38.305-2.196-3.436-7.288-3.444-9.494-.013-9.805 15.254-22.758 28.296-37.941 38.199-3.37 2.199-3.377 7.222-.013 9.429z" fill="url(#SVGID_38_)" data-original="url(#SVGID_38_)" style=""></path><path d="m70.608 182.516c10.717 7.033 19.851 16.281 26.756 27.088 1.553 2.43 5.154 2.435 6.714.009 6.935-10.787 16.094-20.01 26.831-27.013 2.383-1.554 2.388-5.107.009-6.668-10.717-7.033-19.851-16.281-26.755-27.088-1.553-2.43-5.154-2.435-6.714-.009-6.935 10.787-16.094 20.01-26.831 27.013-2.383 1.555-2.388 5.107-.01 6.668z" fill="url(#SVGID_39_)" data-original="url(#SVGID_39_)" style=""></path><path d="m374.855 145.403c10.717 7.033 19.851 16.281 26.756 27.088 1.553 2.43 5.154 2.435 6.714.009 6.935-10.787 16.094-20.01 26.831-27.013 2.383-1.554 2.388-5.107.009-6.668-10.717-7.033-19.851-16.281-26.755-27.088-1.553-2.43-5.154-2.435-6.714-.009-6.935 10.787-16.095 20.01-26.831 27.013-2.384 1.555-2.388 5.107-.01 6.668z" fill="url(#SVGID_40_)" data-original="url(#SVGID_40_)" style=""></path><path d="m51.669 352.224c10.717 7.033 19.851 16.281 26.756 27.088 1.553 2.43 5.154 2.435 6.714.009 6.935-10.787 16.094-20.01 26.831-27.013 2.383-1.554 2.388-5.107.009-6.668-10.717-7.033-19.851-16.281-26.755-27.088-1.553-2.43-5.154-2.435-6.714-.009-6.935 10.787-16.095 20.01-26.831 27.013-2.384 1.555-2.389 5.107-.01 6.668z" fill="url(#SVGID_41_)" data-original="url(#SVGID_41_)" style=""></path><path d="m413.54 68.994c10.717 7.033 19.851 16.281 26.756 27.088 1.553 2.43 5.154 2.435 6.714.009 6.935-10.787 16.094-20.01 26.831-27.013 2.383-1.554 2.388-5.107.009-6.668-10.717-7.033-19.851-16.281-26.755-27.088-1.553-2.43-5.154-2.435-6.714-.009-6.935 10.787-16.095 20.01-26.831 27.013-2.384 1.555-2.389 5.107-.01 6.668z" fill="url(#SVGID_42_)" data-original="url(#SVGID_42_)" style=""></path></g></g></g></svg>